<?xml version="1.0" encoding="utf-8"?>
<!-- Generator: Adobe Illustrator 21.0.2, SVG Export Plug-In . SVG Version: 6.00 Build 0)  -->
<svg version="1.1" id="Livello_1" xmlns="http://www.w3.org/2000/svg" xmlns:xlink="http://www.w3.org/1999/xlink" x="0px" y="0px"
	 viewBox="0 0 1024 1024" style="enable-background:new 0 0 1024 1024;" xml:space="preserve">
<style type="text/css">
	.st0{fill:none;stroke:#000000;stroke-width:0.25;stroke-linecap:round;stroke-miterlimit:10;}
</style>
<g>
	<line class="st0" x1="130.4" y1="627.5" x2="78.5" y2="512"/>
	<line class="st0" x1="230.3" y1="736.8" x2="78.5" y2="512"/>
	<line class="st0" x1="230.3" y1="736.8" x2="130.4" y2="627.5"/>
	<line class="st0" x1="356.4" y1="833.9" x2="78.5" y2="512"/>
	<line class="st0" x1="356.4" y1="833.9" x2="130.4" y2="627.5"/>
	<line class="st0" x1="356.4" y1="833.9" x2="230.3" y2="736.8"/>
	<line class="st0" x1="483.6" y1="913.8" x2="78.5" y2="512"/>
	<line class="st0" x1="483.6" y1="913.8" x2="130.4" y2="627.5"/>
	<line class="st0" x1="483.6" y1="913.8" x2="230.3" y2="736.8"/>
	<line class="st0" x1="483.6" y1="913.8" x2="356.4" y2="833.9"/>
	<line class="st0" x1="588.6" y1="971.9" x2="130.4" y2="627.5"/>
	<line class="st0" x1="588.6" y1="971.9" x2="230.3" y2="736.8"/>
	<line class="st0" x1="588.6" y1="971.9" x2="356.4" y2="833.9"/>
	<line class="st0" x1="588.6" y1="971.9" x2="483.6" y2="913.8"/>
	<line class="st0" x1="654.6" y1="1005.2" x2="130.4" y2="627.5"/>
	<line class="st0" x1="654.6" y1="1005.2" x2="230.3" y2="736.8"/>
	<line class="st0" x1="654.6" y1="1005.2" x2="356.4" y2="833.9"/>
	<line class="st0" x1="654.6" y1="1005.2" x2="483.6" y2="913.8"/>
	<line class="st0" x1="654.6" y1="1005.2" x2="588.6" y2="971.9"/>
	<line class="st0" x1="674.8" y1="1012" x2="130.4" y2="627.5"/>
	<line class="st0" x1="674.8" y1="1012" x2="230.3" y2="736.8"/>
	<line class="st0" x1="674.8" y1="1012" x2="356.4" y2="833.9"/>
	<line class="st0" x1="674.8" y1="1012" x2="483.6" y2="913.8"/>
	<line class="st0" x1="674.8" y1="1012" x2="588.6" y2="971.9"/>
	<line class="st0" x1="674.8" y1="1012" x2="654.6" y2="1005.2"/>
	<line class="st0" x1="653" y1="991.8" x2="130.4" y2="627.5"/>
	<line class="st0" x1="653" y1="991.8" x2="230.3" y2="736.8"/>
	<line class="st0" x1="653" y1="991.8" x2="356.4" y2="833.9"/>
	<line class="st0" x1="653" y1="991.8" x2="483.6" y2="913.8"/>
	<line class="st0" x1="653" y1="991.8" x2="588.6" y2="971.9"/>
	<line class="st0" x1="653" y1="991.8" x2="654.6" y2="1005.2"/>
	<line class="st0" x1="653" y1="991.8" x2="674.8" y2="1012"/>
	<line class="st0" x1="602.9" y1="945.8" x2="130.4" y2="627.5"/>
	<line class="st0" x1="602.9" y1="945.8" x2="230.3" y2="736.8"/>
	<line class="st0" x1="602.9" y1="945.8" x2="356.4" y2="833.9"/>
	<line class="st0" x1="602.9" y1="945.8" x2="483.6" y2="913.8"/>
	<line class="st0" x1="602.9" y1="945.8" x2="588.6" y2="971.9"/>
	<line class="st0" x1="602.9" y1="945.8" x2="654.6" y2="1005.2"/>
	<line class="st0" x1="602.9" y1="945.8" x2="674.8" y2="1012"/>
	<line class="st0" x1="602.9" y1="945.8" x2="653" y2="991.8"/>
	<line class="st0" x1="544.6" y1="876.3" x2="78.5" y2="512"/>
	<line class="st0" x1="544.6" y1="876.3" x2="130.4" y2="627.5"/>
	<line class="st0" x1="544.6" y1="876.3" x2="230.3" y2="736.8"/>
	<line class="st0" x1="544.6" y1="876.3" x2="356.4" y2="833.9"/>
	<line class="st0" x1="544.6" y1="876.3" x2="483.6" y2="913.8"/>
	<line class="st0" x1="544.6" y1="876.3" x2="588.6" y2="971.9"/>
	<line class="st0" x1="544.6" y1="876.3" x2="654.6" y2="1005.2"/>
	<line class="st0" x1="544.6" y1="876.3" x2="674.8" y2="1012"/>
	<line class="st0" x1="544.6" y1="876.3" x2="653" y2="991.8"/>
	<line class="st0" x1="544.6" y1="876.3" x2="602.9" y2="945.8"/>
	<line class="st0" x1="499.2" y1="787.2" x2="78.5" y2="512"/>
	<line class="st0" x1="499.2" y1="787.2" x2="130.4" y2="627.5"/>
	<line class="st0" x1="499.2" y1="787.2" x2="230.3" y2="736.8"/>
	<line class="st0" x1="499.2" y1="787.2" x2="356.4" y2="833.9"/>
	<line class="st0" x1="499.2" y1="787.2" x2="483.6" y2="913.8"/>
	<line class="st0" x1="499.2" y1="787.2" x2="588.6" y2="971.9"/>
	<line class="st0" x1="499.2" y1="787.2" x2="654.6" y2="1005.2"/>
	<line class="st0" x1="499.2" y1="787.2" x2="674.8" y2="1012"/>
	<line class="st0" x1="499.2" y1="787.2" x2="653" y2="991.8"/>
	<line class="st0" x1="499.2" y1="787.2" x2="602.9" y2="945.8"/>
	<line class="st0" x1="499.2" y1="787.2" x2="544.6" y2="876.3"/>
	<line class="st0" x1="484.7" y1="683.3" x2="78.5" y2="512"/>
	<line class="st0" x1="484.7" y1="683.3" x2="130.4" y2="627.5"/>
	<line class="st0" x1="484.7" y1="683.3" x2="230.3" y2="736.8"/>
	<line class="st0" x1="484.7" y1="683.3" x2="356.4" y2="833.9"/>
	<line class="st0" x1="484.7" y1="683.3" x2="483.6" y2="913.8"/>
	<line class="st0" x1="484.7" y1="683.3" x2="588.6" y2="971.9"/>
	<line class="st0" x1="484.7" y1="683.3" x2="654.6" y2="1005.2"/>
	<line class="st0" x1="484.7" y1="683.3" x2="674.8" y2="1012"/>
	<line class="st0" x1="484.7" y1="683.3" x2="653" y2="991.8"/>
	<line class="st0" x1="484.7" y1="683.3" x2="602.9" y2="945.8"/>
	<line class="st0" x1="484.7" y1="683.3" x2="544.6" y2="876.3"/>
	<line class="st0" x1="484.7" y1="683.3" x2="499.2" y2="787.2"/>
	<line class="st0" x1="511.2" y1="570.1" x2="78.5" y2="512"/>
	<line class="st0" x1="511.2" y1="570.1" x2="130.4" y2="627.5"/>
	<line class="st0" x1="511.2" y1="570.1" x2="230.3" y2="736.8"/>
	<line class="st0" x1="511.2" y1="570.1" x2="356.4" y2="833.9"/>
	<line class="st0" x1="511.2" y1="570.1" x2="483.6" y2="913.8"/>
	<line class="st0" x1="511.2" y1="570.1" x2="588.6" y2="971.9"/>
	<line class="st0" x1="511.2" y1="570.1" x2="654.6" y2="1005.2"/>
	<line class="st0" x1="511.2" y1="570.1" x2="674.8" y2="1012"/>
	<line class="st0" x1="511.2" y1="570.1" x2="653" y2="991.8"/>
	<line class="st0" x1="511.2" y1="570.1" x2="602.9" y2="945.8"/>
	<line class="st0" x1="511.2" y1="570.1" x2="544.6" y2="876.3"/>
	<line class="st0" x1="511.2" y1="570.1" x2="499.2" y2="787.2"/>
	<line class="st0" x1="511.2" y1="570.1" x2="484.7" y2="683.3"/>
	<line class="st0" x1="578.5" y1="453.9" x2="78.5" y2="512"/>
	<line class="st0" x1="578.5" y1="453.9" x2="130.4" y2="627.5"/>
	<line class="st0" x1="578.5" y1="453.9" x2="230.3" y2="736.8"/>
	<line class="st0" x1="578.5" y1="453.9" x2="356.4" y2="833.9"/>
	<line class="st0" x1="578.5" y1="453.9" x2="483.6" y2="913.8"/>
	<line class="st0" x1="578.5" y1="453.9" x2="588.6" y2="971.9"/>
	<line class="st0" x1="578.5" y1="453.9" x2="654.6" y2="1005.2"/>
	<line class="st0" x1="578.5" y1="453.9" x2="674.8" y2="1012"/>
	<line class="st0" x1="578.5" y1="453.9" x2="653" y2="991.8"/>
	<line class="st0" x1="578.5" y1="453.9" x2="602.9" y2="945.8"/>
	<line class="st0" x1="578.5" y1="453.9" x2="544.6" y2="876.3"/>
	<line class="st0" x1="578.5" y1="453.9" x2="499.2" y2="787.2"/>
	<line class="st0" x1="578.5" y1="453.9" x2="484.7" y2="683.3"/>
	<line class="st0" x1="578.5" y1="453.9" x2="511.2" y2="570.1"/>
	<line class="st0" x1="675.8" y1="340.7" x2="78.5" y2="512"/>
	<line class="st0" x1="675.8" y1="340.7" x2="130.4" y2="627.5"/>
	<line class="st0" x1="675.8" y1="340.7" x2="230.3" y2="736.8"/>
	<line class="st0" x1="675.8" y1="340.7" x2="356.4" y2="833.9"/>
	<line class="st0" x1="675.8" y1="340.7" x2="483.6" y2="913.8"/>
	<line class="st0" x1="675.8" y1="340.7" x2="588.6" y2="971.9"/>
	<line class="st0" x1="675.8" y1="340.7" x2="654.6" y2="1005.2"/>
	<line class="st0" x1="675.8" y1="340.7" x2="674.8" y2="1012"/>
	<line class="st0" x1="675.8" y1="340.7" x2="653" y2="991.8"/>
	<line class="st0" x1="675.8" y1="340.7" x2="602.9" y2="945.8"/>
	<line class="st0" x1="675.8" y1="340.7" x2="544.6" y2="876.3"/>
	<line class="st0" x1="675.8" y1="340.7" x2="499.2" y2="787.2"/>
	<line class="st0" x1="675.8" y1="340.7" x2="484.7" y2="683.3"/>
	<line class="st0" x1="675.8" y1="340.7" x2="511.2" y2="570.1"/>
	<line class="st0" x1="675.8" y1="340.7" x2="578.5" y2="453.9"/>
	<line class="st0" x1="784" y1="236.8" x2="499.2" y2="787.2"/>
	<line class="st0" x1="784" y1="236.8" x2="484.7" y2="683.3"/>
	<line class="st0" x1="784" y1="236.8" x2="511.2" y2="570.1"/>
	<line class="st0" x1="784" y1="236.8" x2="578.5" y2="453.9"/>
	<line class="st0" x1="784" y1="236.8" x2="675.8" y2="340.7"/>
	<line class="st0" x1="879.5" y1="147.7" x2="484.7" y2="683.3"/>
	<line class="st0" x1="879.5" y1="147.7" x2="511.2" y2="570.1"/>
	<line class="st0" x1="879.5" y1="147.7" x2="578.5" y2="453.9"/>
	<line class="st0" x1="879.5" y1="147.7" x2="675.8" y2="340.7"/>
	<line class="st0" x1="879.5" y1="147.7" x2="784" y2="236.8"/>
	<line class="st0" x1="939.1" y1="78.2" x2="511.2" y2="570.1"/>
	<line class="st0" x1="939.1" y1="78.2" x2="578.5" y2="453.9"/>
	<line class="st0" x1="939.1" y1="78.2" x2="675.8" y2="340.7"/>
	<line class="st0" x1="939.1" y1="78.2" x2="784" y2="236.8"/>
	<line class="st0" x1="939.1" y1="78.2" x2="879.5" y2="147.7"/>
	<line class="st0" x1="945.5" y1="32.2" x2="578.5" y2="453.9"/>
	<line class="st0" x1="945.5" y1="32.2" x2="675.8" y2="340.7"/>
	<line class="st0" x1="945.5" y1="32.2" x2="784" y2="236.8"/>
	<line class="st0" x1="945.5" y1="32.2" x2="879.5" y2="147.7"/>
	<line class="st0" x1="945.5" y1="32.2" x2="939.1" y2="78.2"/>
	<line class="st0" x1="891" y1="12" x2="511.2" y2="570.1"/>
	<line class="st0" x1="891" y1="12" x2="578.5" y2="453.9"/>
	<line class="st0" x1="891" y1="12" x2="675.8" y2="340.7"/>
	<line class="st0" x1="891" y1="12" x2="784" y2="236.8"/>
	<line class="st0" x1="891" y1="12" x2="879.5" y2="147.7"/>
	<line class="st0" x1="891" y1="12" x2="939.1" y2="78.2"/>
	<line class="st0" x1="891" y1="12" x2="945.5" y2="32.2"/>
	<line class="st0" x1="779.4" y1="18.8" x2="511.2" y2="570.1"/>
	<line class="st0" x1="779.4" y1="18.8" x2="578.5" y2="453.9"/>
	<line class="st0" x1="779.4" y1="18.8" x2="675.8" y2="340.7"/>
	<line class="st0" x1="779.4" y1="18.8" x2="784" y2="236.8"/>
	<line class="st0" x1="779.4" y1="18.8" x2="879.5" y2="147.7"/>
	<line class="st0" x1="779.4" y1="18.8" x2="939.1" y2="78.2"/>
	<line class="st0" x1="779.4" y1="18.8" x2="945.5" y2="32.2"/>
	<line class="st0" x1="779.4" y1="18.8" x2="891" y2="12"/>
	<line class="st0" x1="625.7" y1="52.1" x2="484.7" y2="683.3"/>
	<line class="st0" x1="625.7" y1="52.1" x2="511.2" y2="570.1"/>
	<line class="st0" x1="625.7" y1="52.1" x2="578.5" y2="453.9"/>
	<line class="st0" x1="625.7" y1="52.1" x2="675.8" y2="340.7"/>
	<line class="st0" x1="625.7" y1="52.1" x2="784" y2="236.8"/>
	<line class="st0" x1="625.7" y1="52.1" x2="879.5" y2="147.7"/>
	<line class="st0" x1="625.7" y1="52.1" x2="939.1" y2="78.2"/>
	<line class="st0" x1="625.7" y1="52.1" x2="945.5" y2="32.2"/>
	<line class="st0" x1="625.7" y1="52.1" x2="891" y2="12"/>
	<line class="st0" x1="625.7" y1="52.1" x2="779.4" y2="18.8"/>
	<line class="st0" x1="453.4" y1="110.2" x2="78.5" y2="512"/>
	<line class="st0" x1="453.4" y1="110.2" x2="130.4" y2="627.5"/>
	<line class="st0" x1="453.4" y1="110.2" x2="230.3" y2="736.8"/>
	<line class="st0" x1="453.4" y1="110.2" x2="484.7" y2="683.3"/>
	<line class="st0" x1="453.4" y1="110.2" x2="511.2" y2="570.1"/>
	<line class="st0" x1="453.4" y1="110.2" x2="578.5" y2="453.9"/>
	<line class="st0" x1="453.4" y1="110.2" x2="675.8" y2="340.7"/>
	<line class="st0" x1="453.4" y1="110.2" x2="784" y2="236.8"/>
	<line class="st0" x1="453.4" y1="110.2" x2="879.5" y2="147.7"/>
	<line class="st0" x1="453.4" y1="110.2" x2="939.1" y2="78.2"/>
	<line class="st0" x1="453.4" y1="110.2" x2="945.5" y2="32.2"/>
	<line class="st0" x1="453.4" y1="110.2" x2="891" y2="12"/>
	<line class="st0" x1="453.4" y1="110.2" x2="779.4" y2="18.8"/>
	<line class="st0" x1="453.4" y1="110.2" x2="625.7" y2="52.1"/>
	<line class="st0" x1="290" y1="190.1" x2="78.5" y2="512"/>
	<line class="st0" x1="290" y1="190.1" x2="130.4" y2="627.5"/>
	<line class="st0" x1="290" y1="190.1" x2="230.3" y2="736.8"/>
	<line class="st0" x1="290" y1="190.1" x2="356.4" y2="833.9"/>
	<line class="st0" x1="290" y1="190.1" x2="499.2" y2="787.2"/>
	<line class="st0" x1="290" y1="190.1" x2="484.7" y2="683.3"/>
	<line class="st0" x1="290" y1="190.1" x2="511.2" y2="570.1"/>
	<line class="st0" x1="290" y1="190.1" x2="578.5" y2="453.9"/>
	<line class="st0" x1="290" y1="190.1" x2="675.8" y2="340.7"/>
	<line class="st0" x1="290" y1="190.1" x2="784" y2="236.8"/>
	<line class="st0" x1="290" y1="190.1" x2="879.5" y2="147.7"/>
	<line class="st0" x1="290" y1="190.1" x2="939.1" y2="78.2"/>
	<line class="st0" x1="290" y1="190.1" x2="945.5" y2="32.2"/>
	<line class="st0" x1="290" y1="190.1" x2="891" y2="12"/>
	<line class="st0" x1="290" y1="190.1" x2="779.4" y2="18.8"/>
	<line class="st0" x1="290" y1="190.1" x2="625.7" y2="52.1"/>
	<line class="st0" x1="290" y1="190.1" x2="453.4" y2="110.2"/>
	<line class="st0" x1="161.7" y1="287.2" x2="78.5" y2="512"/>
	<line class="st0" x1="161.7" y1="287.2" x2="130.4" y2="627.5"/>
	<line class="st0" x1="161.7" y1="287.2" x2="230.3" y2="736.8"/>
	<line class="st0" x1="161.7" y1="287.2" x2="356.4" y2="833.9"/>
	<line class="st0" x1="161.7" y1="287.2" x2="499.2" y2="787.2"/>
	<line class="st0" x1="161.7" y1="287.2" x2="484.7" y2="683.3"/>
	<line class="st0" x1="161.7" y1="287.2" x2="511.2" y2="570.1"/>
	<line class="st0" x1="161.7" y1="287.2" x2="578.5" y2="453.9"/>
	<line class="st0" x1="161.7" y1="287.2" x2="675.8" y2="340.7"/>
	<line class="st0" x1="161.7" y1="287.2" x2="784" y2="236.8"/>
	<line class="st0" x1="161.7" y1="287.2" x2="779.4" y2="18.8"/>
	<line class="st0" x1="161.7" y1="287.2" x2="625.7" y2="52.1"/>
	<line class="st0" x1="161.7" y1="287.2" x2="453.4" y2="110.2"/>
	<line class="st0" x1="161.7" y1="287.2" x2="290" y2="190.1"/>
	<line class="st0" x1="88" y1="396.5" x2="78.5" y2="512"/>
	<line class="st0" x1="88" y1="396.5" x2="130.4" y2="627.5"/>
	<line class="st0" x1="88" y1="396.5" x2="230.3" y2="736.8"/>
	<line class="st0" x1="88" y1="396.5" x2="356.4" y2="833.9"/>
	<line class="st0" x1="88" y1="396.5" x2="483.6" y2="913.8"/>
	<line class="st0" x1="88" y1="396.5" x2="544.6" y2="876.3"/>
	<line class="st0" x1="88" y1="396.5" x2="499.2" y2="787.2"/>
	<line class="st0" x1="88" y1="396.5" x2="484.7" y2="683.3"/>
	<line class="st0" x1="88" y1="396.5" x2="511.2" y2="570.1"/>
	<line class="st0" x1="88" y1="396.5" x2="578.5" y2="453.9"/>
	<line class="st0" x1="88" y1="396.5" x2="675.8" y2="340.7"/>
	<line class="st0" x1="88" y1="396.5" x2="625.7" y2="52.1"/>
	<line class="st0" x1="88" y1="396.5" x2="453.4" y2="110.2"/>
	<line class="st0" x1="88" y1="396.5" x2="290" y2="190.1"/>
	<line class="st0" x1="88" y1="396.5" x2="161.7" y2="287.2"/>
</g>
</svg>
